HIERARCHY
ROOT Hips
{
    OFFSET 0.000000 97.120003 0.000000
    CHANNELS 6 Xposition Yposition Zposition Yrotation Xrotation Zrotation
    JOINT RightUpLeg
    {
        OFFSET -11.000000 -0.000000 0.000000
        CHANNELS 3 Yrotation Xrotation Zrotation
        JOINT RightLeg
        {
            OFFSET 0.000000 -45.062000 0.000000
            CHANNELS 3 Yrotation Xrotation Zrotation
            JOINT RightFoot
            {
                OFFSET 0.000000 -42.057999 0.000000
                CHANNELS 3 Yrotation Xrotation Zrotation
                End Site
                {
                    OFFSET 0.000000 -10.000000 15.120000
                }
            }
        }
    }
    JOINT LeftUpLeg
    {
        OFFSET 11.000000 -0.000000 0.000000
        CHANNELS 3 Yrotation Xrotation Zrotation
        JOINT LeftLeg
        {
            OFFSET 0.000000 -45.062000 0.000000
            CHANNELS 3 Yrotation Xrotation Zrotation
            JOINT LeftFoot
            {
                OFFSET 0.000000 -42.057999 0.000000
                CHANNELS 3 Yrotation Xrotation Zrotation
                End Site
                {
                    OFFSET 0.000000 -10.000000 15.120000
                }
            }
        }
    }
    JOINT Spine
    {
        OFFSET 0.000000 8.120000 0.000000
        CHANNELS 3 Yrotation Xrotation Zrotation
        JOINT Spine1
        {
            OFFSET 0.000000 17.980000 0.000000
            CHANNELS 3 Yrotation Xrotation Zrotation
            JOINT Spine2
            {
                OFFSET 0.000000 12.760000 0.000000
                CHANNELS 3 Yrotation Xrotation Zrotation
                JOINT Neck
                {
                    OFFSET 0.000000 19.139999 0.000000
                    CHANNELS 3 Yrotation Xrotation Zrotation
                    JOINT Neck1
                    {
                        OFFSET 0.000000 4.250000 0.000000
                        CHANNELS 3 Yrotation Xrotation Zrotation
                        JOINT Head
                        {
                            OFFSET 0.000000 4.250000 0.000000
                            CHANNELS 3 Yrotation Xrotation Zrotation
                            End Site
                            {
                                OFFSET 0.000000 19.120001 0.000000
                            }
                        }
                    }
                }
                JOINT RightShoulder
                {
                    OFFSET -2.900000 13.340000 0.000000
                    CHANNELS 3 Yrotation Xrotation Zrotation
                    JOINT RightArm
                    {
                        OFFSET -16.100000 0.000000 0.000000
                        CHANNELS 3 Yrotation Xrotation Zrotation
                        JOINT RightForeArm
                        {
                            OFFSET -28.000000 0.000000 0.000000
                            CHANNELS 3 Yrotation Xrotation Zrotation
                            JOINT RightHand
                            {
                                OFFSET -26.000000 0.000000 0.000000
                                CHANNELS 3 Yrotation Xrotation Zrotation
                                JOINT RightHandThumb1
                                {
                                    OFFSET -1.937000 -0.484000 2.518000
                                    CHANNELS 3 Yrotation Xrotation Zrotation
                                    JOINT RightHandThumb2
                                    {
                                        OFFSET -3.872000 0.000000 0.000000
                                        CHANNELS 3 Yrotation Xrotation Zrotation
                                        JOINT RightHandThumb3
                                        {
                                            OFFSET -2.690000 0.000000 0.000000
                                            CHANNELS 3 Yrotation Xrotation Zrotation
                                            End Site
                                            {
                                                OFFSET -2.537000 0.000000 0.000000
                                            }
                                        }
                                    }
                                }
                                JOINT RightInHandIndex
                                {
                                    OFFSET -3.389000 0.535000 2.080000
                                    CHANNELS 3 Yrotation Xrotation Zrotation
                                    JOINT RightHandIndex1
                                    {
                                        OFFSET -5.485000 -0.096000 1.051000
                                        CHANNELS 3 Yrotation Xrotation Zrotation
                                        JOINT RightHandIndex2
                                        {
                                            OFFSET -3.806000 0.000000 0.000000
                                            CHANNELS 3 Yrotation Xrotation Zrotation
                                            JOINT RightHandIndex3
                                            {
                                                OFFSET -2.158000 0.000000 0.000000
                                                CHANNELS 3 Yrotation Xrotation Zrotation
                                                End Site
                                                {
                                                    OFFSET -1.898000 0.000000 0.000000
                                                }
                                            }
                                        }
                                    }
                                }
                                JOINT RightInHandMiddle
                                {
                                    OFFSET -3.556000 0.544000 0.796000
                                    CHANNELS 3 Yrotation Xrotation Zrotation
                                    JOINT RightHandMiddle1
                                    {
                                        OFFSET -5.441000 -0.088000 0.330000
                                        CHANNELS 3 Yrotation Xrotation Zrotation
                                        JOINT RightHandMiddle2
                                        {
                                            OFFSET -4.153000 0.000000 0.000000
                                            CHANNELS 3 Yrotation Xrotation Zrotation
                                            JOINT RightHandMiddle3
                                            {
                                                OFFSET -2.603000 0.000000 0.000000
                                                CHANNELS 3 Yrotation Xrotation Zrotation
                                                End Site
                                                {
                                                    OFFSET -2.076000 0.000000 0.000000
                                                }
                                            }
                                        }
                                    }
                                }
                                JOINT RightInHandRing
                                {
                                    OFFSET -3.539000 0.566000 -0.136000
                                    CHANNELS 3 Yrotation Xrotation Zrotation
                                    JOINT RightHandRing1
                                    {
                                        OFFSET -4.873000 -0.023000 -0.504000
                                        CHANNELS 3 Yrotation Xrotation Zrotation
                                        JOINT RightHandRing2
                                        {
                                            OFFSET -3.619000 0.000000 0.000000
                                            CHANNELS 3 Yrotation Xrotation Zrotation
                                            JOINT RightHandRing3
                                            {
                                                OFFSET -2.511000 0.000000 0.000000
                                                CHANNELS 3 Yrotation Xrotation Zrotation
                                                End Site
                                                {
                                                    OFFSET -1.952000 0.000000 0.000000
                                                }
                                            }
                                        }
                                    }
                                }
                                JOINT RightInHandPinky
                                {
                                    OFFSET -3.324000 0.494000 -1.264000
                                    CHANNELS 3 Yrotation Xrotation Zrotation
                                    JOINT RightHandPinky1
                                    {
                                        OFFSET -4.354000 -0.023000 -1.147000
                                        CHANNELS 3 Yrotation Xrotation Zrotation
                                        JOINT RightHandPinky2
                                        {
                                            OFFSET -2.898000 0.000000 0.000000
                                            CHANNELS 3 Yrotation Xrotation Zrotation
                                            JOINT RightHandPinky3
                                            {
                                                OFFSET -1.831000 0.000000 0.000000
                                                CHANNELS 3 Yrotation Xrotation Zrotation
                                                End Site
                                                {
                                                    OFFSET -1.730000 0.000000 0.000000
                                                }
                                            }
                                        }
                                    }
                                }
                            }
                        }
                    }
                }
                JOINT LeftShoulder
                {
                    OFFSET 2.900000 13.340000 0.000000
                    CHANNELS 3 Yrotation Xrotation Zrotation
                    JOINT LeftArm
                    {
                        OFFSET 16.100000 0.000000 0.000000
                        CHANNELS 3 Yrotation Xrotation Zrotation
                        JOINT LeftForeArm
                        {
                            OFFSET 28.000000 0.000000 0.000000
                            CHANNELS 3 Yrotation Xrotation Zrotation
                            JOINT LeftHand
                            {
                                OFFSET 26.000000 0.000000 0.000000
                                CHANNELS 3 Yrotation Xrotation Zrotation
                                JOINT LeftHandThumb1
                                {
                                    OFFSET 1.937000 -0.484000 2.518000
                                    CHANNELS 3 Yrotation Xrotation Zrotation
                                    JOINT LeftHandThumb2
                                    {
                                        OFFSET 3.872000 0.000000 0.000000
                                        CHANNELS 3 Yrotation Xrotation Zrotation
                                        JOINT LeftHandThumb3
                                        {
                                            OFFSET 2.690000 0.000000 0.000000
                                            CHANNELS 3 Yrotation Xrotation Zrotation
                                            End Site
                                            {
                                                OFFSET 2.537000 0.000000 0.000000
                                            }
                                        }
                                    }
                                }
                                JOINT LeftInHandIndex
                                {
                                    OFFSET 3.389000 0.535000 2.080000
                                    CHANNELS 3 Yrotation Xrotation Zrotation
                                    JOINT LeftHandIndex1
                                    {
                                        OFFSET 5.485000 -0.096000 1.051000
                                        CHANNELS 3 Yrotation Xrotation Zrotation
                                        JOINT LeftHandIndex2
                                        {
                                            OFFSET 3.806000 0.000000 0.000000
                                            CHANNELS 3 Yrotation Xrotation Zrotation
                                            JOINT LeftHandIndex3
                                            {
                                                OFFSET 2.158000 0.000000 0.000000
                                                CHANNELS 3 Yrotation Xrotation Zrotation
                                                End Site
                                                {
                                                    OFFSET 1.898000 0.000000 0.000000
                                                }
                                            }
                                        }
                                    }
                                }
                                JOINT LeftInHandMiddle
                                {
                                    OFFSET 3.556000 0.544000 0.796000
                                    CHANNELS 3 Yrotation Xrotation Zrotation
                                    JOINT LeftHandMiddle1
                                    {
                                        OFFSET 5.441000 -0.088000 0.330000
                                        CHANNELS 3 Yrotation Xrotation Zrotation
                                        JOINT LeftHandMiddle2
                                        {
                                            OFFSET 4.153000 0.000000 0.000000
                                            CHANNELS 3 Yrotation Xrotation Zrotation
                                            JOINT LeftHandMiddle3
                                            {
                                                OFFSET 2.603000 0.000000 0.000000
                                                CHANNELS 3 Yrotation Xrotation Zrotation
                                                End Site
                                                {
                                                    OFFSET 2.076000 0.000000 0.000000
                                                }
                                            }
                                        }
                                    }
                                }
                                JOINT LeftInHandRing
                                {
                                    OFFSET 3.539000 0.566000 -0.136000
                                    CHANNELS 3 Yrotation Xrotation Zrotation
                                    JOINT LeftHandRing1
                                    {
                                        OFFSET 4.873000 -0.023000 -0.504000
                                        CHANNELS 3 Yrotation Xrotation Zrotation
                                        JOINT LeftHandRing2
                                        {
                                            OFFSET 3.619000 0.000000 0.000000
                                            CHANNELS 3 Yrotation Xrotation Zrotation
                                            JOINT LeftHandRing3
                                            {
                                                OFFSET 2.511000 0.000000 0.000000
                                                CHANNELS 3 Yrotation Xrotation Zrotation
                                                End Site
                                                {
                                                    OFFSET 1.952000 0.000000 0.000000
                                                }
                                            }
                                        }
                                    }
                                }
                                JOINT LeftInHandPinky
                                {
                                    OFFSET 3.324000 0.494000 -1.264000
                                    CHANNELS 3 Yrotation Xrotation Zrotation
                                    JOINT LeftHandPinky1
                                    {
                                        OFFSET 4.354000 -0.023000 -1.147000
                                        CHANNELS 3 Yrotation Xrotation Zrotation
                                        JOINT LeftHandPinky2
                                        {
                                            OFFSET 2.898000 0.000000 0.000000
                                            CHANNELS 3 Yrotation Xrotation Zrotation
                                            JOINT LeftHandPinky3
                                            {
                                                OFFSET 1.831000 0.000000 0.000000
                                                CHANNELS 3 Yrotation Xrotation Zrotation
                                                End Site
                                                {
                                                    OFFSET 1.730000 0.000000 0.000000
                                                }
                                            }
                                        }
                                    }
                                }
                            }
                        }
                    }
                }
            }
        }
    }
}
MOTION
Frames: 4
Frame Time: 0.011111
-33.176582 197.861404 121.241867 7.007407 24.472538 -4.336159 16.358614 -58.146091 -6.880383 156.741455 128.731308 174.762665 174.018509 -168.394608 -179.557983 6.414693 -37.810768 2.496851 20.207603 31.151300 -2.221587 17.322292 -24.884188 10.734652 179.938477 170.461243 179.477692 0.157413 9.355865 -0.651765 0.930102 6.799903 -0.731016 179.999847 -179.611099 178.406952 179.999817 -179.546295 178.349960 172.112701 -179.537842 179.088394 2.754934 -1.545352 0.241385 16.223671 -0.099429 74.546295 9.869312 6.437212 -2.582476 0.596367 -7.785017 -38.350315 56.445412 44.998585 8.215311 179.999893 179.999908 -176.798630 179.999924 179.999969 -177.867889 0.000001 0.000003 0.000000 14.999762 -0.000590 13.768018 179.999924 -179.999481 -168.735260 0.000031 -0.000375 7.885324 0.000001 0.000003 0.000000 0.000313 0.000474 12.392578 0.000203 0.000552 12.392590 0.000058 0.000376 8.253465 0.000001 0.000003 0.000000 169.998810 -179.998489 -170.295410 179.999069 -179.998306 -170.295425 179.999588 -179.998795 -173.536758 0.000001 0.000003 0.000000 159.998123 -179.997940 -169.795715 179.997726 -179.996460 -164.693558 179.999161 -179.997330 -169.805923 172.601715 -175.054688 -179.211807 157.313797 -164.653305 115.094055 164.318405 168.004745 -175.814560 7.745298 9.688877 16.126272 141.840179 137.277740 -173.419357 0.000207 0.000107 -5.193828 0.000140 0.000066 -3.459094 0.000000 -0.000000 0.000000 165.000183 179.999985 154.793991 0.000146 -0.000039 -20.623081 0.000082 -0.000065 -14.436152 0.000000 -0.000000 0.000000 0.001645 0.000280 -30.854252 0.001548 -0.000605 -30.854267 0.000676 -0.000874 -20.548939 0.000000 -0.000000 0.000000 10.000884 0.000166 -24.112911 0.000871 -0.000217 -24.112907 0.000470 -0.000372 -16.059195 0.000000 -0.000000 0.000000 19.999413 -0.000115 -21.097166 179.999130 179.999847 148.354263 179.999573 179.999603 158.923920
-33.236988 198.033295 121.928467 6.668227 24.143557 -4.345505 14.876309 -57.972782 -5.221855 157.296906 130.529984 174.918091 175.186859 -168.348175 -179.507538 5.838472 -36.629230 2.931091 20.679012 30.345619 -2.244476 17.663809 -24.774275 10.355581 179.939224 170.689117 179.496613 0.123428 9.132302 -0.672613 0.770605 6.635074 -0.784935 179.999924 -179.795090 178.390778 179.999878 -179.760956 178.333221 172.679550 -179.701859 179.054016 2.765563 -1.199410 0.166039 16.062923 0.472719 75.076729 8.610958 6.969697 -2.469176 0.354526 -7.951064 -37.526581 55.746807 45.006756 7.500595 179.999847 179.999893 -176.780930 179.999893 179.999939 -177.856110 180.000000 180.000000 -180.000000 14.999527 -0.000897 13.728657 179.999802 -179.999207 -168.767471 179.999985 -179.999420 -172.137222 180.000000 180.000000 -180.000000 180.000000 -179.999985 -167.528900 179.999985 -179.999985 -167.528915 180.000000 -179.999985 -171.694244 180.000000 180.000000 -180.000000 169.998840 -179.998840 -170.466751 179.999054 -179.998672 -170.466751 179.999527 -179.999023 -173.650864 180.000000 180.000000 -180.000000 159.998062 -179.998291 -170.023651 179.997574 -179.996979 -165.035477 179.998932 -179.997635 -170.033630 172.725601 -175.305023 -179.293121 158.031769 -164.905930 114.527489 164.758377 166.913834 -175.674728 7.607472 10.274993 16.367170 141.675415 136.964188 -173.680939 0.000437 0.000233 -5.183669 0.000290 0.000133 -3.452327 0.000000 -0.000000 0.000000 165.000290 179.999954 154.806595 0.000249 -0.000062 -20.612768 0.000131 -0.000108 -14.428933 0.000000 -0.000000 0.000000 0.001766 0.000291 -30.681940 0.001679 -0.000649 -30.681927 0.000748 -0.000937 -20.434170 0.000000 -0.000000 0.000000 10.001279 0.000229 -24.030708 0.001254 -0.000314 -24.030720 0.000685 -0.000530 -16.004459 0.000000 -0.000000 0.000000 20.000036 0.000012 -21.212051 0.000074 -0.000011 -31.818090 0.000036 -0.000028 -21.190859
-33.306755 198.179108 122.624374 6.352785 23.825342 -4.334643 13.354977 -57.746120 -3.513846 159.720322 132.276520 175.967026 174.772217 -168.337738 -179.103516 5.461850 -35.478970 3.250286 21.030523 29.602102 -2.313454 17.948410 -24.702723 10.005760 179.936249 170.914185 179.514130 0.091762 8.911486 -0.695014 0.622484 6.472196 -0.838098 179.999893 -179.976898 178.353485 179.999863 -179.973053 178.294617 173.277969 -179.863770 179.010025 2.784389 -0.858116 0.074615 16.236855 1.092361 75.481865 7.349794 7.270615 -2.315855 0.048883 -8.029760 -36.555664 54.783356 45.251385 6.088546 179.995132 179.999207 -177.034225 179.996735 179.999649 -178.024796 0.000000 0.000000 -0.000003 14.999466 -0.000836 13.608850 179.999741 -179.999222 -168.865479 179.999924 -179.999435 -172.205841 0.000000 0.000000 -0.000003 179.999710 -179.999710 -167.507919 179.999786 -179.999634 -167.507919 179.999908 -179.999725 -171.680267 0.000000 0.000000 -0.000003 169.998840 -179.999023 -170.628204 179.999023 -179.998840 -170.628204 179.999481 -179.999130 -173.758392 0.000000 0.000000 -0.000003 159.998871 -179.999146 -170.305283 179.998550 -179.998444 -165.457916 179.999313 -179.998764 -170.314957 172.834991 -175.546310 -179.376770 157.806335 -165.623566 114.615845 165.112839 167.057541 -175.675308 7.502250 11.309243 16.716700 141.451767 136.528946 -174.009933 0.000719 0.000386 -5.154759 0.000497 0.000216 -3.433073 0.000000 0.000003 0.000000 165.000336 179.999954 154.835907 0.000268 -0.000078 -20.588802 0.000150 -0.000124 -14.412160 0.000000 0.000003 0.000000 0.002073 0.000317 -30.508205 0.001941 -0.000771 -30.508207 0.000866 -0.001095 -20.318457 0.000000 0.000003 0.000000 10.001639 0.000269 -23.904631 0.001594 -0.000422 -23.904629 0.000868 -0.000682 -15.920471 0.000000 0.000003 0.000000 20.000870 0.000153 -21.258232 0.001299 -0.000247 -31.887329 0.000639 -0.000589 -21.236986
-33.399601 198.298340 123.325623 6.064405 23.515591 -4.301527 11.573969 -57.477196 -1.664873 160.185928 134.358292 175.759857 175.639374 -168.539276 -179.121613 5.390330 -34.388935 3.403711 21.026688 28.949873 -2.441960 18.320854 -24.669378 9.631836 179.931000 171.133926 179.530319 0.062627 8.695836 -0.719257 0.486783 6.313020 -0.890852 179.999924 179.840088 178.334030 179.999893 179.813431 178.274475 173.809250 179.972595 178.979980 2.807144 -0.522212 -0.025871 16.482573 1.700643 76.005890 6.104570 7.620669 -2.341644 179.694641 -171.923645 144.558182 53.443134 44.297356 6.432759 179.999847 -179.999893 -175.913193 179.999908 -179.999924 -177.278183 0.000002 -0.000000 0.000003 14.999628 -0.000494 13.434968 179.999802 -179.999542 -169.007751 179.999924 -179.999664 -172.305435 0.000002 -0.000000 0.000003 179.999725 -179.999756 -167.565369 179.999771 -179.999695 -167.565384 179.999908 -179.999771 -171.718536 0.000002 -0.000000 0.000003 169.999039 -179.999298 -170.820312 179.999161 -179.999161 -170.820297 179.999542 -179.999344 -173.886322 0.000002 -0.000000 0.000003 159.999832 -179.999878 -170.514206 179.999771 -179.999786 -165.771317 179.999893 -179.999832 -170.523697 172.927292 -175.778885 -179.460800 157.718872 -166.281387 114.605629 165.485779 166.464798 -175.586685 7.405736 11.785866 16.925751 141.007843 135.821960 -174.585464 0.000938 0.000515 -5.092876 0.000646 0.000291 -3.391862 0.000000 -0.000000 0.000003 165.000549 179.999924 154.865173 0.000441 -0.000144 -20.564846 0.000253 -0.000200 -14.395397 0.000000 -0.000000 0.000003 0.002175 0.000304 -30.243483 0.002042 -0.000828 -30.243465 0.000902 -0.001153 -20.142160 0.000000 -0.000000 0.000003 10.001541 0.000222 -23.669792 0.001507 -0.000396 -23.669804 0.000806 -0.000643 -15.764097 0.000000 -0.000000 0.000003 20.001270 0.000204 -21.151554 0.001880 -0.000393 -31.727325 0.000930 -0.000872 -21.130400
